Coordinates
version=1
nRows=16
nColumns=22
inDegrees=yes

Units are S.I. units (second, meters, Newtons, ...)
If the header above contains a line with 'inDegrees', this indicates whether rotational values are in degrees (yes) or radians (no).

endheader
time	pelvis_tilt	pelvis_list	pelvis_rotation	pelvis_tx	pelvis_ty	pelvis_tz	hip_flexion_r	hip_adduction_r	hip_rotation_r	knee_angle_r	ankle_angle_r	subtalar_angle_r	hip_flexion_l	hip_adduction_l	hip_rotation_l	knee_angle_l	ankle_angle_l	subtalar_angle_l	lumbar_extension	lumbar_bending	lumbar_rotation
      0.01000000	     -3.38488488	     -4.14370211	     -2.90461036	      1.09613396	      0.94333113	     -0.27029637	      7.84764014	      4.97180659	     -1.57374152	    -15.40014137	     10.70122627	     -3.19713771	     10.67260138	     -7.30312437	     -8.66999693	    -22.52976202	     12.60926001	     -3.14986351	     -3.58865513	      1.83232094	      1.43359439
      0.02000000	     -3.38318855	     -4.14477772	     -2.91786094	      1.09609578	      0.94333238	     -0.27034675	      7.85097053	      4.96938911	     -1.56994079	    -15.40211063	     10.70415997	     -3.19884451	     10.67230217	     -7.29989369	     -8.66896705	    -22.53303520	     12.60893711	     -3.14998778	     -3.59539779	      1.83577519	      1.43258349
      0.03000000	     -3.36679441	     -4.14696963	     -2.94406249	      1.09602210	      0.94334310	     -0.27038290	      7.85980223	      4.97180513	     -1.52979782	    -15.44253515	     10.71289367	     -3.20600463	     10.66451897	     -7.29965048	     -8.67528681	    -22.55475050	     12.61251667	     -3.15354226	     -3.62427710	      1.83731480	      1.44425268
      0.04000000	     -3.35456764	     -4.14859015	     -2.99077811	      1.09594935	      0.94335257	     -0.27040501	      7.86559303	      4.97501303	     -1.47135248	    -15.46644787	     10.72068339	     -3.21596075	     10.65067372	     -7.30478668	     -8.72233607	    -22.56370610	     12.62621513	     -3.16362307	     -3.65076749	      1.84014734	      1.47921117
      0.05000000	     -3.35420796	     -4.15047323	     -3.01051259	      1.09591434	      0.94335176	     -0.27049002	      7.86809318	      4.97113772	     -1.47046506	    -15.46335744	     10.72062225	     -3.21635994	     10.65046733	     -7.29931714	     -8.72279965	    -22.56716756	     12.62621066	     -3.16395507	     -3.65586140	      1.84786222	      1.47591769
      0.06000000	     -3.33952972	     -4.15322203	     -3.05298397	      1.09584230	      0.94336134	     -0.27053529	      7.87511257	      4.97393275	     -1.41344735	    -15.49598922	     10.71221349	     -3.21725511	     10.64297391	     -7.30335103	     -8.75691199	    -22.59241046	     12.63493293	     -3.17311112	     -3.68515486	      1.85440174	      1.48501480
      0.07000000	     -3.34077742	     -4.15456230	     -3.07734331	      1.09581501	      0.94335816	     -0.27063512	      7.87746267	      4.96792638	     -1.41255340	    -15.49031327	     10.71294769	     -3.21745165	     10.64329388	     -7.29662880	     -8.75913280	    -22.59545732	     12.63539079	     -3.17382383	     -3.69020587	      1.86652363	      1.48279177
      0.08000000	     -3.33934856	     -4.15626889	     -3.15325661	      1.09579796	      0.94335586	     -0.27064120	      7.88092868	      4.97515639	     -1.31379321	    -15.49615540	     10.71038224	     -3.21467083	     10.63232408	     -7.30975310	     -8.85756521	    -22.60713534	     12.65163687	     -3.19729471	     -3.69759042	      1.87511858	      1.53648771
      0.09000000	     -3.34096162	     -4.15671529	     -3.17763569	      1.09578731	      0.94335185	     -0.27074075	      7.88281398	      4.96816081	     -1.31402976	    -15.49212084	     10.71021095	     -3.21469387	     10.63278119	     -7.30215420	     -8.85730968	    -22.61201768	     12.65122154	     -3.19767792	     -3.70284055	      1.88736213	      1.52956576
      0.10000000	     -3.34285823	     -4.15646081	     -3.20381721	      1.09579340	      0.94334770	     -0.27084283	      7.88391332	      4.96025438	     -1.31175825	    -15.48823479	     10.70950564	     -3.21449789	     10.63288837	     -7.29402258	     -8.86005383	    -22.61935006	     12.65146129	     -3.19865712	     -3.70636010	      1.90094310	      1.52127672
      0.11000000	     -3.35717424	     -4.15365460	     -3.26317461	      1.09580643	      0.94332418	     -0.27087852	      7.89320496	      4.96039974	     -1.23139495	    -15.47814409	     10.70060337	     -3.20691640	     10.64601534	     -7.30059511	     -8.94478492	    -22.63919799	     12.66054379	     -3.22304606	     -3.69550128	      1.90959539	      1.54176121
      0.12000000	     -3.36163186	     -4.15346918	     -3.28789707	      1.09581977	      0.94331924	     -0.27098034	      7.89471999	      4.95281260	     -1.23287678	    -15.47205110	     10.70087037	     -3.20690405	     10.64742726	     -7.29213175	     -8.94509923	    -22.64286502	     12.66041534	     -3.22349595	     -3.70072044	      1.92386117	      1.53468059
      0.13000000	     -3.37597623	     -4.14921969	     -3.32149239	      1.09586879	      0.94330088	     -0.27106191	      7.89506745	      4.94444619	     -1.20974305	    -15.44886490	     10.69616554	     -3.20383454	     10.65754583	     -7.28681867	     -8.98287100	    -22.65171905	     12.66638488	     -3.23254346	     -3.68759175	      1.93346177	      1.51636076
      0.14000000	     -3.38246970	     -4.14899330	     -3.34600085	      1.09588018	      0.94329538	     -0.27116996	      7.89810268	      4.93692696	     -1.21002329	    -15.44114467	     10.69642632	     -3.20375029	     10.66074755	     -7.27807604	     -8.98423462	    -22.65443499	     12.66632740	     -3.23314786	     -3.69546425	      1.94986535	      1.51266570
      0.15000000	     -3.41055912	     -4.14837689	     -3.39762593	      1.09591792	      0.94326426	     -0.27121856	      7.90854265	      4.93861686	     -1.15141475	    -15.40831985	     10.68427362	     -3.19764969	     10.68326474	     -7.28397925	     -9.05257493	    -22.66414034	     12.67480647	     -3.24867092	     -3.67243745	      1.96374298	      1.51960810
      0.16000000	     -3.41769232	     -4.14852875	     -3.42560230	      1.09592034	      0.94326066	     -0.27132380	      7.91376561	      4.93180026	     -1.15163422	    -15.40185426	     10.68438287	     -3.19762198	     10.68634854	     -7.27545738	     -9.05250684	    -22.66676743	     12.67435842	     -3.24903782	     -3.68398328	      1.98042146	      1.51586400
